# xmcd CD database file
#
# Track frame offsets:
#	150
#	21133
#	43510
#	73232
#	90037
#	117152
#	135809
#	160369
#	187124
#	215863
#	237630
#	260287
#	283580
#
# Disc length: 3969 seconds
#
# Revision: 0
# Processed by: cddbd v1.5.2PL0 Copyright (c) Steve Scherf et al.
# Submitted via: CDex 1.79
#
DISCID=b80f7f0d
DTITLE=Giovanni Mirabassi - Live in Germany
DYEAR=2017
DGENRE=Jazz
TTITLE0=Sous Le Ciel De Paris
TTITLE1=Cancion Con Todos
TTITLE2=The Man I Love
TTITLE3=Hymne A L'Amour
TTITLE4=Solo Le Pido A Dios
TTITLE5=Mercedes
TTITLE6=My Old Flame
TTITLE7=J' M'en Fous Pas Mal
TTITLE8=Ella
TTITLE9=Duerme Mi Tripon
TTITLE10=Bewitched
TTITLE11=Edith
TTITLE12=I've Grown Accustomed To Her Face
EXTD=YEAR: 2017
EXTT0=
EXTT1=
EXTT2=
EXTT3=
EXTT4=
EXTT5=
EXTT6=
EXTT7=
EXTT8=
EXTT9=
EXTT10=
EXTT11=
EXTT12=
PLAYORDER=
